<?xml version="1.0" encoding="utf-8"?>
<!-- Generator: Adobe Illustrator 21.0.2, SVG Export Plug-In . SVG Version: 6.00 Build 0)  -->
<svg width="237" height="37" xmlns="http://www.w3.org/2000/svg" xmlns:xlink="http://www.w3.org/1999/xlink" x="0px" y="0px"
	 viewBox="0 0 115.6 17.8" style="enable-background:new 0 0 115.6 17.8;" xml:space="preserve">
<style type="text/css">
	.st0{fill:#231F20;}
</style>
<g>
	<polyline class="st0" points="14.1,1.3 16.6,1.3 16.6,0 3.4,0 3.4,1.3 5.9,1.3 1.3,5.8 0,4.5 0,10.5 5.9,10.5 4.7,9.2 7.3,6.6 
		7.3,11.8 4,11.8 10,17.8 16,11.8 12.8,11.8 12.8,6.6 15.3,9.2 14.1,10.5 20,10.5 20,4.6 18.7,5.8 14.1,1.3 	"/>
	<path class="st0" d="M66.5,13.3c-0.6,0.4-1.5,0.5-2.2,0.3c-1.9-0.7-2.1-3.3-2.1-5.3c0-1.7,0.2-3.5,1.5-4.6C64.3,3,65.4,3,66.1,3.3
		c0.9,0.4,1.5,1.3,1.6,2.2h3.4c-0.1-0.6-0.3-1.2-0.7-1.7c-1.4-2.2-3.8-3.1-6.3-2.8c-2.1,0.3-3.9,1.4-4.8,4.1c-0.8,3-0.7,6.8,1.4,9.1
		c1.7,1.8,4.3,2.3,6.7,1.6c1.9-0.6,3.5-2.6,3.8-4.6h-3.5C67.5,12,67.3,12.8,66.5,13.3"/>
	<polyline class="st0" points="90.3,9.8 85.1,1.4 82.3,1.4 82.3,15.7 85.2,15.7 85.2,7.2 90.5,15.7 93.4,15.7 93.4,1.4 90.3,1.4 
		90.3,9.8 	"/>
	<polyline class="st0" points="94,3.9 98.1,3.9 98.1,15.7 101,15.7 101,3.9 105,3.9 105,1.4 93.9,1.4 94,3.9 	"/>
	<polyline class="st0" points="71.7,15.7 81.7,15.7 81.7,13.1 74.8,13.1 74.8,9.5 81,9.5 81,7 74.8,7 74.8,4 81.7,4 81.7,1.4 
		71.7,1.4 71.7,15.7 	"/>
	<polyline class="st0" points="36.5,15.7 46.5,15.7 46.5,13.1 39.6,13.1 39.6,9.5 45.8,9.5 45.8,7 39.6,7 39.6,4 46.5,4 46.5,1.4 
		36.5,1.4 36.5,15.7 	"/>
	<polyline class="st0" points="115.6,4 115.6,1.4 105.6,1.4 105.6,15.7 115.6,15.7 115.6,13.1 108.7,13.1 108.7,9.5 114.9,9.5 
		114.9,7 108.7,7 108.7,4 115.6,4 	"/>
	<path class="st0" d="M56.3,7.7l-5.5-1.8C50.4,5.7,50,5.2,50,4.7c0-0.4,0.1-0.8,0.4-1c1-0.7,2.5-0.7,3.6-0.3
		c0.8,0.4,1.3,1.3,1.3,2.1h2.9c0-0.9-0.3-1.8-0.7-2.5c-1.3-2.1-3.6-2.4-5.9-2.2c-1.9,0.1-3.8,1.2-4.4,3c-0.4,1.3,0,2.6,0.8,3.5
		c1.9,1.7,4.4,1.8,6.5,2.8c0,0,0.4,0.2,0.5,0.4c0.3,0.4,0.4,0.8,0.3,1.3c-0.1,0.4-0.3,0.8-0.7,1c-0.7,0.4-2.2,0.6-3.2,0.2
		c-0.9-0.2-1.6-1.1-1.8-1.9h-3c0,1.5,0.8,2.7,2,3.6c2.2,1.4,5.7,1.6,8,0.2c1.3-0.9,2.1-2.3,2.1-3.9C58.6,9.7,57.7,8.3,56.3,7.7"/>
	<path class="st0" d="M30.7,1.5c-1.1-0.1-2.1-0.1-2.1-0.1h-4.5v14.3h4.5c1.8,0,3.6,0,4.9-1c2.8-2.1,2.8-6.2,1.9-9.3
		C34.9,3.4,32.8,1.7,30.7,1.5L30.7,1.5z M32,11.9c-1.1,1.6-3.2,1.2-4.8,1.3l0-9.2C28.8,4,30.7,3.7,31.7,5C33.2,6.8,33.2,9.9,32,11.9
		"/>
</g>
</svg>
